<svg width="24" height="24" viewBox="0 0 24 24" fill="none" xmlns="http://www.w3.org/2000/svg">
<g id="Link - social media &#226;&#134;&#146; SVG" clip-path="url(#clip0_1_161)">
<g id="Clip path group">
<mask id="mask0_1_161" style="mask-type:luminance" maskUnits="userSpaceOnUse" x="0" y="0" width="24" height="24">
<g id="clip0_17_68">
<path id="Vector" d="M0 0H24V24H0V0Z" fill="white"/>
</g>
</mask>
<g mask="url(#mask0_1_161)">
<g id="Group">
<path id="Vector_2" d="M22.2235 0H1.772C0.792 0 0 0.7735 0 1.73V22.265C0 23.222 0.792 24 1.772 24H22.2235C23.2035 24 24 23.222 24 22.27V1.73C24 0.773 23.203 0 22.2235 0ZM7.12 20.4515H3.558V8.9955H7.1205V20.4515H7.12ZM5.339 7.435C5.06781 7.43546 4.79918 7.38246 4.54849 7.27903C4.29779 7.17559 4.06995 7.02376 3.87798 6.83221C3.686 6.64065 3.53367 6.41314 3.4297 6.16267C3.32572 5.9122 3.27213 5.64369 3.272 5.3725C3.27213 5.10131 3.32572 4.8328 3.4297 4.58233C3.53367 4.33186 3.686 4.10435 3.87798 3.91279C4.06995 3.72124 4.29779 3.56941 4.54849 3.46597C4.79918 3.36254 5.06781 3.30954 5.339 3.31C5.88601 3.31 6.41061 3.5273 6.79741 3.91409C7.1842 4.30089 7.4015 4.82549 7.4015 5.3725C7.4015 5.91951 7.1842 6.44411 6.79741 6.83091C6.41061 7.2177 5.88601 7.435 5.339 7.435ZM20.4515 20.452H16.894V14.883C16.894 13.5565 16.8705 11.8455 15.042 11.8455C13.1905 11.8455 12.9095 13.2935 12.9095 14.789V20.4515H9.356V8.9955H12.769V10.5605H12.8155C13.289 9.6605 14.4515 8.7095 16.181 8.7095C19.786 8.7095 20.4515 11.0815 20.4515 14.1655V20.452Z" fill="#6B7280"/>
</g>
</g>
</g>
</g>
<defs>
<clipPath id="clip0_1_161">
<rect width="24" height="24" fill="white"/>
</clipPath>
</defs>
</svg>
