<svg width="20" height="20" viewBox="0 0 20 20" fill="none" xmlns="http://www.w3.org/2000/svg">
<g id="SVG">
<path id="Vector" fill-rule="evenodd" clip-rule="evenodd" d="M7.20999 14.77C7.07216 14.6267 6.99685 14.4346 7.0006 14.2359C7.00435 14.0371 7.08686 13.848 7.22999 13.71L11.168 10L7.22999 6.29C7.15565 6.22256 7.0956 6.14089 7.0534 6.04982C7.01119 5.95875 6.9877 5.86013 6.98431 5.75982C6.98093 5.6595 6.99771 5.55952 7.03366 5.46581C7.06962 5.3721 7.12402 5.28656 7.19365 5.21426C7.26327 5.14196 7.3467 5.08437 7.43899 5.0449C7.53127 5.00543 7.63055 4.98489 7.73092 4.9845C7.83129 4.9841 7.93072 5.00385 8.02332 5.04259C8.11592 5.08132 8.1998 5.13825 8.26999 5.21L12.77 9.46C12.8426 9.52996 12.9003 9.61384 12.9398 9.70662C12.9792 9.7994 12.9995 9.89918 12.9995 10C12.9995 10.1008 12.9792 10.2006 12.9398 10.2934C12.9003 10.3862 12.8426 10.47 12.77 10.54L8.26999 14.79C8.12674 14.9278 7.93462 15.0031 7.73585 14.9994C7.53709 14.9956 7.34795 14.9131 7.20999 14.77Z" fill="white"/>
</g>
</svg>
