<svg width="24" height="24" viewBox="0 0 24 24" fill="none" xmlns="http://www.w3.org/2000/svg">
<g id="Link - social media &#226;&#134;&#146; SVG" clip-path="url(#clip0_1_155)">
<g id="Clip path group">
<mask id="mask0_1_155" style="mask-type:luminance" maskUnits="userSpaceOnUse" x="0" y="0" width="24" height="24">
<g id="clip0_17_80">
<path id="Vector" d="M0 0H24V24H0V0Z" fill="white"/>
</g>
</mask>
<g mask="url(#mask0_1_155)">
<g id="Group">
<path id="Vector_2" d="M7.55 21.7502C16.605 21.7502 21.5585 14.2472 21.5585 7.74219C21.5585 7.53119 21.5535 7.31569 21.544 7.10469C22.5078 6.4077 23.3395 5.54434 24 4.55519C23.1025 4.95419 22.15 5.21519 21.174 5.32819C22.2013 4.71248 22.9704 3.74522 23.339 2.60569C22.3725 3.17854 21.3156 3.58264 20.2135 3.80069C19.471 3.01136 18.4891 2.48866 17.4197 2.31342C16.3503 2.13819 15.253 2.32019 14.2974 2.83128C13.3418 3.34236 12.5813 4.15405 12.1334 5.14082C11.6855 6.12758 11.5751 7.23444 11.8195 8.29019C9.8625 8.19199 7.94797 7.68364 6.20003 6.79808C4.4521 5.91253 2.90976 4.66954 1.673 3.14969C1.04446 4.23344 0.852136 5.51584 1.13512 6.73629C1.4181 7.95673 2.15516 9.02364 3.1965 9.72019C2.41465 9.69542 1.64992 9.48496 0.9655 9.10619V9.16719C0.964846 10.3044 1.35802 11.4068 2.0782 12.287C2.79839 13.1671 3.80113 13.7707 4.916 13.9952C4.19195 14.1933 3.43202 14.2222 2.695 14.0797C3.00966 15.0577 3.62181 15.9131 4.446 16.5265C5.2702 17.1398 6.26532 17.4806 7.2925 17.5012C6.27081 18.304 5.10074 18.8972 3.84935 19.2469C2.59795 19.5966 1.28985 19.696 0 19.5392C2.25287 20.9843 4.87348 21.7517 7.55 21.7502Z" fill="#6B7280"/>
</g>
</g>
</g>
</g>
<defs>
<clipPath id="clip0_1_155">
<rect width="24" height="24" fill="white"/>
</clipPath>
</defs>
</svg>
